<svg xmlns="http://www.w3.org/2000/svg" viewBox="0 0 366.92 320.84"><defs><style>.cls-1{font-size:69px;fill:#b5b5b5;font-family:CenturyGothic-Bold, Century Gothic;font-weight:700;}.cls-2{letter-spacing:-0.05em;}.cls-3{letter-spacing:-0.01em;}.cls-4{letter-spacing:-0.01em;}.cls-5{letter-spacing:0em;}.cls-6{letter-spacing:-0.03em;}.cls-7{letter-spacing:0.01em;}.cls-8{letter-spacing:-0.03em;}.cls-9{letter-spacing:-0.02em;}.cls-10{letter-spacing:-0.02em;}.cls-11{letter-spacing:-0.01em;}.cls-12{fill:#f99ed9;}.cls-13{fill:#28eff2;}.cls-14{fill:#fff;}</style></defs><title>logo</title><g id="Draw_Layer" data-name="Draw Layer"><text class="cls-1" transform="translate(0.04 299.68)"><tspan class="cls-2">c</tspan><tspan class="cls-3" x="41.06" y="0">o</tspan><tspan class="cls-4" x="84.83" y="0">l</tspan><tspan class="cls-5" x="100.95" y="0">o</tspan><tspan class="cls-6" x="145.23" y="0">r</tspan><tspan class="cls-7" x="165.11" y="0">d</tspan><tspan class="cls-8" x="211.01" y="0">r</tspan><tspan class="cls-9" x="230.74" y="0">o</tspan><tspan class="cls-10" x="273.85" y="0">p</tspan><tspan class="cls-11" x="317.93" y="0">s</tspan><tspan x="347.57" y="0">.</tspan></text><path class="cls-12" d="M294.9,244.38A109.63,109.63,0,1,1,294.9,76a108.77,108.77,0,0,0,0,168.35Z" transform="translate(-115.04 -50.58)"/><path class="cls-13" d="M472.53,160.2A108.76,108.76,0,0,1,294.9,244.38,109.62,109.62,0,0,0,294.9,76,108.76,108.76,0,0,1,472.53,160.2Z" transform="translate(-115.04 -50.58)"/><path class="cls-14" d="M334.3,160.2a109.37,109.37,0,0,1-39.4,84.18A108.77,108.77,0,0,1,294.9,76,109.36,109.36,0,0,1,334.3,160.2Z" transform="translate(-115.04 -50.58)"/></g></svg>